<svg xmlns="http://www.w3.org/2000/svg" xmlns:xlink="http://www.w3.org/1999/xlink" viewBox="0 0 27 27">
    <g>
        <path fill="#FFF" d="M21.711 16.212c.057-.303.175-.739.356-1.307l.568-1.79c.199-.625.374-1.226.526-1.804.15-.578.227-1.01.227-1.293 0-.966-.374-1.714-1.122-2.245-.749-.53-1.786-.795-3.112-.795-.53.34-1.075.947-1.634 1.818-.559.872-1.132 1.989-1.719 3.353l-.199.028c.057-.284.123-.558.2-.824.037-.227.08-.464.127-.71.047-.246.071-.464.071-.654 0-.947-.365-1.685-1.094-2.216-.73-.53-1.747-.795-3.054-.795-.53.34-1.075.947-1.634 1.818-.559.872-1.132 1.989-1.719 3.353l-.199.028c.076-.511.17-1.023.284-1.534.114-.512.218-.966.313-1.364l.34-1.364-.397-.596c-.72.056-1.459.113-2.216.17-.644.038-1.336.076-2.074.114-.74.038-1.421.056-2.046.056l-.341 2.33h.795c.379 0 .64.09.782.27.142.18.184.498.128.952a33.29 33.29 0 0 0-.142.867c-.057.37-.124.786-.2 1.25-.075.464-.156.962-.24 1.492-.086.53-.167 1.051-.242 1.562-.21 1.213-.427 2.52-.654 3.922l.568.653c.53 0 1.047-.038 1.549-.114a6.59 6.59 0 0 0 1.321-.326c.379-.142.687-.299.924-.47.236-.17.373-.359.412-.567l.198-1.677c.303-.89.616-1.71.938-2.458.322-.748.625-1.392.91-1.932.284-.54.544-.96.78-1.264.237-.303.431-.455.583-.455.36 0 .54.218.54.654 0 .133-.028.35-.085.653-.057.303-.128.654-.213 1.052-.085.397-.18.828-.284 1.292-.105.465-.213.924-.327 1.378-.266 1.08-.568 2.274-.91 3.58l.569.654c.53 0 1.046-.038 1.548-.114a6.91 6.91 0 0 0 1.336-.326c.388-.142.7-.299.938-.47.236-.17.364-.359.383-.567l.142-1.364c.36-.928.72-1.785 1.08-2.572.36-.786.7-1.463 1.023-2.031.322-.569.62-1.013.895-1.336.274-.322.497-.483.668-.483.34 0 .511.266.511.796 0 .265-.09.715-.27 1.35-.18.634-.38 1.311-.597 2.031-.218.72-.416 1.402-.596 2.046-.18.644-.27 1.118-.27 1.42 0 .588.146 1.014.44 1.28.294.264.772.397 1.435.397.398 0 .79-.071 1.18-.213.387-.142.81-.384 1.264-.725.454-.34.966-.79 1.534-1.35a44.251 44.251 0 0 0 1.989-2.116l-.54-1.364-.682-.114c-.568.493-.937.81-1.108.952-.17.142-.294.213-.37.213l-.085-.085z"/>
    </g>
</svg>
