<svg xmlns="http://www.w3.org/2000/svg" xmlns:xlink="http://www.w3.org/1999/xlink" viewBox="0 0 48 48">
    <defs>
        <circle id="XMLID_9_" cx="24" cy="24" r="22"/>
    </defs>
    <clipPath id="XMLID_34_">
        <use xlink:href="#XMLID_9_" overflow="visible"/>
    </clipPath>
    <g id="XMLID_8_" clip-path="url(#XMLID_34_)">
        <g id="XMLID_17_">
            <path id="XMLID_7_" fill="#3c6cae" d="M0 0h48v48H0z"/>
            <ellipse id="XMLID_6_" fill="#f0bd1a" cx="38.246" cy="28.837" rx="5.792" ry="5.755"/>
            <ellipse id="XMLID_5_" fill="#f0bd1a" cx="20.568" cy="5.397" rx="6.818" ry="6.774"/>
            <path id="XMLID_20_" fill="#5999c6" d="M-13.789-140.2c11.053 0 21.764 2.146 31.838 6.38a81.94 81.94 0 0 1 26.01 17.427 82.072 82.072 0 0 1 10 12.043 81.09 81.09 0 0 1 7.54 13.8c4.26 10.01 6.42 20.653 6.42 31.635S65.86-37.29 61.6-27.281a81.089 81.089 0 0 1-7.54 13.8A82.072 82.072 0 0 1 18.05 15.99C7.975 20.224-2.736 22.37-13.79 22.37s-21.764-2.146-31.837-6.38a81.94 81.94 0 0 1-26.01-17.428 82.072 82.072 0 0 1-10-12.043 81.089 81.089 0 0 1-7.54-13.8c-4.26-10.01-6.42-20.652-6.42-31.634s2.16-21.625 6.42-31.634a81.089 81.089 0 0 1 7.54-13.8 82.072 82.072 0 0 1 36.01-29.472c10.073-4.233 20.785-6.38 31.837-6.38m0-18.985c-55.733 0-100.914 44.893-100.914 100.27S-69.523 41.356-13.79 41.356 87.126-3.537 87.126-58.915s-45.18-100.27-100.915-100.27z"/>
            <path id="XMLID_18_" fill="#1f292a" d="M21.022 45.792c-.01-.559-.027-1.08-.057-1.563l-.042-.692-.052-.63a31.38 31.38 0 0 0-.106-1.063c-.034-.31-.07-.572-.099-.785-.058-.425-.098-.651-.098-.651s-.067.22-.181.633l-.208.76c-.081.298-.174.64-.274 1.023l-.338 1.263-.402 1.477c-.296 1.048-1.452 4.738-1.698 5.386.608-6.937.837-12.046.71-15.924.03-1.687-.026-3.458-.303-5.295l-.053-.366-.067-.366c-.048-.245-.086-.49-.144-.735-.055-.245-.108-.49-.167-.736l-.196-.73a28.313 28.313 0 0 0-.976-2.807 94.314 94.314 0 0 0-1.096-2.558 127.124 127.124 0 0 1-1.287-3.018l-.237-.598c-.164-.395-.312-.795-.464-1.19-.153-.396-.296-.794-.443-1.187l-.027-.074-.014-.037-.007-.019c.027.092.004.015.008.03l-.051-.154-.105-.308-.104-.306-.052-.153c-.02-.053-.028-.09-.042-.136-.1-.353-.219-.685-.308-1.064-.047-.184-.099-.368-.142-.551l-.123-.551c-.02-.092-.043-.183-.06-.274l-.049-.275-.101-.546-.079-.543-.04-.27-.03-.27-.06-.534-.04-.53-.022-.264-.011-.261-.024-.52c-.002-.342-.017-.683-.007-1.016l.007-.498.021-.49c.056-1.294.22-2.49.398-3.557.19-1.065.411-1.996.618-2.764.054-.19.102-.373.154-.543.05-.17.096-.332.143-.48.093-.298.176-.551.245-.757.141-.41.226-.63.226-.63s-.177.156-.478.481a15.344 15.344 0 0 0-1.207 1.496 19.953 19.953 0 0 0-1.552 2.58c-.128.262-.266.532-.389.818l-.192.435c-.06.15-.12.3-.183.453-.129.306-.233.628-.354.956l-.162.504c-.055.17-.108.343-.155.52l-.148.535-.13.552-.067.281-.055.286-.111.581c-.032.196-.061.395-.09.596l-.044.303-.033.306-.065.622-.038.634-.019.321c-.004.108-.004.215-.006.324l-.007.655.02.663.012.336c.006.112.017.224.025.336l.055.68c.025.226.058.453.087.682.05.451.15.942.24 1.423.012.058.024.127.035.176l.036.158.071.315.073.317.037.158.058.212c.12.435.23.876.362 1.315l.016.054c.75 2.507.702 5.18-.102 7.67-.633 1.96-1.282 4.389-1.473 6.567-.313 3.559-.223 8.27.31 15.172-.045-.125-.969-3.405-1.197-4.944a42.173 42.173 0 0 1-.418-4.538c-.061-1.47-.06-2.88-.03-4.193a97.42 97.42 0 0 1 .156-3.608c.028-.543.068-1.05.101-1.522.03-.472.073-.905.1-1.3.07-.79.123-1.413.16-1.837l.06-.657s-.132.19-.353.563a24.728 24.728 0 0 0-.888 1.65c-.183.362-.364.768-.565 1.213a35.36 35.36 0 0 0-2.654 9.507 29.898 29.898 0 0 0-.234 5.14c.076 1.806.343 3.698.882 5.591.068.236.14.473.214.71.082.234.157.471.246.705.087.235.174.47.271.703.05.117.093.231.146.352l.166.367.084.184.074.154.147.302.055.111.045.087.09.173c.062.114.122.229.187.342.255.452.53.892.823 1.32.29.429.606.84.935 1.24.33.4.675.788 1.042 1.156.732.74 1.533 1.418 2.432 2.012.45.297.925.57 1.437.814a8.657 8.657 0 0 0 1.682.606c.31.075.638.134.988.166.351.03.729.032 1.127-.016a4.829 4.829 0 0 0 .798-.168l.1-.03.049-.017.024-.009.075-.029.079-.029.032-.013.063-.027c.34-.142.652-.319.932-.512a6.291 6.291 0 0 0 1.357-1.277c.353-.446.633-.894.866-1.334.23-.442.42-.875.584-1.3.16-.426.294-.844.412-1.254.232-.82.395-1.608.517-2.367.124-.76.207-1.487.266-2.184.115-1.394.138-2.66.114-3.779z"/>
        </g>
    </g>
    <linearGradient id="XMLID_36_" gradientUnits="userSpaceOnUse" x1="18.691" y1="13.748" x2="36.814" y2="41.655">
        <stop offset="0"/>
        <stop offset="1" stop-opacity="0"/>
    </linearGradient>
    <path id="XMLID_14_" opacity=".4" fill="url(#XMLID_36_)" clip-path="url(#XMLID_34_)" d="M30.168 47.998L13.354 31.241l6.028-13.422 3.066 3.087 2.969-2.633 4.613 4.619 2.907-4.619L48 33.17V48z"/>
    <path id="XMLID_10_" fill="#fff" clip-path="url(#XMLID_34_)" d="M32.211 26.712c.057-.303.175-.739.356-1.307l.568-1.79c.199-.625.374-1.226.526-1.804.15-.578.227-1.01.227-1.293 0-.966-.374-1.714-1.122-2.245-.749-.53-1.786-.795-3.112-.795-.53.34-1.075.947-1.634 1.818-.559.872-1.132 1.989-1.719 3.353l-.199.028c.057-.284.123-.558.2-.824.037-.227.08-.464.127-.71.047-.246.071-.464.071-.654 0-.947-.365-1.685-1.094-2.216-.73-.53-1.747-.795-3.054-.795-.53.34-1.075.947-1.634 1.818-.559.872-1.132 1.989-1.719 3.353l-.199.028c.076-.511.17-1.023.284-1.534.114-.512.218-.966.313-1.364l.34-1.364-.397-.596c-.72.056-1.459.113-2.216.17-.644.038-1.336.076-2.074.114-.74.038-1.421.056-2.046.056l-.341 2.33h.795c.379 0 .64.09.782.27.142.18.184.498.128.952a33.29 33.29 0 0 0-.142.867c-.057.37-.124.786-.2 1.25-.075.464-.156.962-.24 1.492-.086.53-.167 1.051-.242 1.562-.21 1.213-.427 2.52-.654 3.922l.568.653c.53 0 1.047-.038 1.549-.114a6.59 6.59 0 0 0 1.321-.326c.379-.142.687-.299.924-.47.236-.17.373-.359.412-.567l.198-1.677c.303-.89.616-1.71.938-2.458.322-.748.625-1.392.91-1.932.284-.54.544-.96.78-1.264.237-.303.431-.455.583-.455.36 0 .54.218.54.654 0 .133-.028.35-.085.653-.057.303-.128.654-.213 1.052-.085.397-.18.828-.284 1.292-.105.465-.213.924-.327 1.378-.266 1.08-.568 2.274-.91 3.58l.569.654c.53 0 1.046-.038 1.548-.114a6.91 6.91 0 0 0 1.336-.326c.388-.142.7-.299.938-.47.236-.17.364-.359.383-.567l.142-1.364c.36-.928.72-1.785 1.08-2.572.36-.786.7-1.463 1.023-2.031.322-.569.62-1.013.895-1.336.274-.322.497-.483.668-.483.34 0 .511.266.511.796 0 .265-.09.715-.27 1.35-.18.634-.38 1.311-.597 2.031-.218.72-.416 1.402-.596 2.046-.18.644-.27 1.118-.27 1.42 0 .588.146 1.014.44 1.28.294.264.772.397 1.435.397.398 0 .79-.071 1.18-.213.387-.142.81-.384 1.264-.725.454-.34.966-.79 1.534-1.35a44.251 44.251 0 0 0 1.989-2.116l-.54-1.364-.682-.114c-.568.493-.937.81-1.108.952-.17.142-.294.213-.37.213l-.085-.085z"/>
</svg>
