<svg xmlns="http://www.w3.org/2000/svg" viewBox="0 0 88 88">
    <path fill-rule="evenodd" clip-rule="evenodd" d="M44 0C19.7 0 0 19.7 0 44s19.7 44 44 44 44-19.7 44-44S68.3 0 44 0zm17.8 54.3c-1.1 1.1-2.1 2-3 2.7-.9.7-1.7 1.2-2.5 1.4-.8.3-1.6.4-2.3.4-1.3 0-2.3-.3-2.9-.8-.6-.5-.9-1.4-.9-2.5 0-.6.2-1.5.5-2.8.4-1.3.8-2.6 1.2-4.1.4-1.4.8-2.8 1.2-4 .4-1.3.5-2.2.5-2.7 0-1.1-.3-1.6-1-1.6-.3 0-.8.3-1.3 1-.5.6-1.1 1.5-1.8 2.7-.6 1.1-1.3 2.5-2 4-.7 1.6-1.4 3.3-2.1 5.1l-.4 2.7c0 .4-.3.8-.8 1.1-.5.3-1.1.6-1.9.9-.8.3-1.7.5-2.7.6-1 .2-2 .2-3.1.2l-1.1-1.3c.7-2.6 1.3-5 1.8-7.1l.6-2.7c.2-.9.4-1.8.6-2.6.2-.8.3-1.5.4-2.1.1-.6.2-1 .2-1.3 0-.9-.4-1.3-1.1-1.3-.3 0-.7.3-1.2.9-.5.6-1 1.4-1.6 2.5-.6 1.1-1.2 2.4-1.8 3.8-.6 1.5-1.3 3.1-1.9 4.9l-.4 3.3c-.1.4-.3.8-.8 1.1-.5.3-1.1.6-1.8.9-.8.3-1.6.5-2.6.6-1 .2-2 .2-3.1.2l-1.1-1.3c.5-2.8.9-5.4 1.3-7.8.2-1 .3-2.1.5-3.1.2-1.1.3-2 .5-3 .2-.9.3-1.8.4-2.5.1-.7.2-1.3.3-1.7.1-.9 0-1.5-.3-1.9-.3-.4-.8-.5-1.6-.5h-1.6l.7-4.6c1.2 0 2.6 0 4.1-.1 1.5-.1 2.8-.2 4.1-.2 1.5-.1 3-.2 4.4-.3l.8 1.2-.7 2.7c-.2.8-.4 1.7-.6 2.7l-.6 3 .4-.1c1.2-2.7 2.3-4.9 3.4-6.7 1.1-1.7 2.2-2.9 3.2-3.6 2.6 0 4.6.5 6.1 1.6 1.4 1.1 2.2 2.5 2.2 4.4 0 .4 0 .8-.1 1.3s-.2 1-.3 1.4c-.2.5-.3 1.1-.4 1.6l.4-.1c1.2-2.7 2.3-4.9 3.4-6.7 1.1-1.7 2.2-2.9 3.2-3.6 2.6 0 4.7.5 6.2 1.6s2.2 2.5 2.2 4.5c0 .6-.2 1.4-.5 2.6-.3 1.1-.6 2.3-1 3.6-.4 1.2-.8 2.4-1.1 3.6-.4 1.1-.6 2-.7 2.6l.2.2c.2 0 .4-.1.7-.4.3-.3 1.1-.9 2.2-1.9l1.4.2 1.1 2.7c-1.3 2-2.6 3.4-3.7 4.5z"/>
</svg>
