<svg width="76" height="24" viewBox="0 0 76 24" xmlns="http://www.w3.org/2000/svg">
  <path fill="#000" d="M20.876 17.66c.06-.323.187-.79.38-1.396.19-.606.394-1.243.606-1.91.212-.667.4-1.31.56-1.928.16-.618.244-1.077.244-1.38 0-1.033-.4-1.832-1.2-2.398-.798-.566-1.906-.85-3.322-.85-.566.364-1.148 1.012-1.745 1.942-.6.93-1.21 2.124-1.838 3.58l-.212.03c.062-.303.132-.596.213-.88.04-.242.086-.495.137-.758.05-.263.076-.495.076-.698 0-1.01-.39-1.8-1.168-2.367-.78-.566-1.866-.85-3.262-.85C9.78 8.163 9.2 8.81 8.603 9.74c-.597.93-1.21 2.124-1.836 3.58l-.212.03c.08-.546.182-1.092.304-1.638.12-.546.23-1.032.33-1.457L7.557 8.8l-.425-.637c-.767.06-1.556.12-2.365.18-.688.042-1.426.082-2.215.123-.79.04-1.518.06-2.186.06L0 11.016h.85c.405 0 .683.095.834.287.152.193.197.53.137 1.017-.04.223-.09.53-.15.926-.06.395-.132.84-.212 1.335L1.2 16.176c-.092.566-.178 1.123-.26 1.67-.222 1.294-.454 2.69-.697 4.187l.606.7c.564 0 1.116-.042 1.652-.123a6.916 6.916 0 0 0 1.41-.35c.405-.15.734-.318.987-.5.25-.183.4-.385.44-.607l.21-1.79c.324-.95.658-1.824 1-2.624.346-.8.67-1.488.973-2.064.303-.576.58-1.026.834-1.35.252-.324.46-.486.622-.486.383 0 .576.233.576.698 0 .142-.03.374-.09.698-.062.323-.138.697-.23 1.122-.092.425-.19.886-.302 1.38-.11.497-.228.987-.35 1.473a265.39 265.39 0 0 1-.97 3.824l.607.7c.567 0 1.12-.042 1.655-.123a7.154 7.154 0 0 0 1.426-.35c.415-.15.75-.316 1-.5.254-.18.39-.383.41-.605l.153-1.455c.384-.99.77-1.907 1.153-2.746.384-.84.748-1.564 1.092-2.17.343-.608.66-1.083.955-1.428.293-.344.53-.516.713-.516.364 0 .546.284.546.85 0 .284-.096.764-.288 1.44-.192.68-.405 1.402-.637 2.17-.234.77-.446 1.498-.638 2.186s-.29 1.193-.29 1.518c0 .627.157 1.082.47 1.365.314.282.825.424 1.533.424.425 0 .844-.076 1.26-.228.414-.152.864-.41 1.35-.774.485-.363 1.03-.844 1.638-1.44a46.366 46.366 0 0 0 2.125-2.26l-.577-1.458-.727-.12c-.606.525-1 .864-1.183 1.016-.183.152-.314.228-.395.228l-.09-.094.004-.004zm12.017-.425a193.609 193.609 0 0 1-.668 2.79c-.162.648-.243 1.114-.243 1.397 0 .97.516 1.456 1.548 1.456.425 0 .844-.07 1.26-.212.413-.143.864-.39 1.35-.744.484-.354 1.036-.834 1.653-1.44a49.63 49.63 0 0 0 2.17-2.307l-.608-1.457-.698-.12c-.344.303-.612.54-.804.712-.192.173-.34.3-.44.38a.817.817 0 0 1-.212.137.493.493 0 0 1-.12.015l-.12-.09c.16-.972.343-1.98.545-3.02.202-1.042.395-1.998.577-2.868.224-1.01.436-2.002.638-2.974l-.607-.698-3.306-.06-.607.363-.334 2.73c-.34.972-.683 1.863-1.024 2.67-.342.81-.668 1.498-.98 2.064-.312.564-.598 1.004-.86 1.317-.26.314-.48.47-.66.47-.323 0-.483-.222-.483-.667 0-.12.03-.332.09-.636s.14-.657.243-1.062c.102-.404.218-.854.35-1.35.13-.496.268-.986.41-1.472a234.49 234.49 0 0 1 1.123-3.793l-.487-.606c-.773.063-1.565.123-2.377.184-.69.04-1.432.08-2.224.122a41.48 41.48 0 0 1-2.194.06l-.365 2.49h.85c.668 0 1 .333 1 1 0 .364-.09.89-.27 1.578-.18.688-.38 1.407-.594 2.155-.212.75-.41 1.47-.592 2.17-.18.696-.272 1.24-.272 1.622 0 1.033.395 1.832 1.184 2.398.79.566 1.9.85 3.338.85 1.05-.73 2.235-2.57 3.55-5.522l.273-.03-.003-.002z M42.936 14.564c.263-.788.602-1.335 1.017-1.638.414-.304 1.066-.456 1.957-.456l1.244.03-8.102 8.83.85 1.366a7.172 7.172 0 0 1 1.82-.835c.688-.21 1.305-.316 1.85-.316.426 0 .846.07 1.26.212.415.143.835.294 1.26.455.425.164.854.314 1.29.457.435.14.885.212 1.35.212.587 0 1.133-.11 1.64-.335.505-.222.94-.53 1.304-.925.364-.396.652-.86.865-1.397.214-.535.32-1.117.32-1.744 0-.568-.05-1.13-.15-1.687-.103-.556-.234-.976-.396-1.26h-.94c-.102.77-.33 1.392-.683 1.867-.353.477-.773.714-1.26.714-.2 0-.435-.01-.697-.03-.262-.02-.53-.046-.804-.076s-.53-.056-.774-.076a7.63 7.63 0 0 0-.607-.03l-.668.09a261.848 261.848 0 0 1 4.082-4.17 209.404 209.404 0 0 1 4.293-4.173l-.12-.61L52.07 7.1l-.79.88c-.263.283-.53.476-.804.576-.273.102-.683.152-1.23.152-.465 0-1.026-.045-1.684-.137-.657-.09-1.3-.185-1.927-.286-.73-.12-1.477-.273-2.245-.455l-1.305.333c-.122.77-.264 1.542-.425 2.32a173.017 173.017 0 0 1-.941 4.234l2.215-.152.002-.001zM65.42 8.77c-.75-.607-1.77-.91-3.065-.91a7.534 7.534 0 0 0-3.307.743 8.839 8.839 0 0 0-2.716 2.017 9.685 9.685 0 0 0-1.852 2.99 9.764 9.764 0 0 0-.683 3.656c0 1.72.45 3.085 1.35 4.096.9 1.013 2.11 1.518 3.627 1.518.708 0 1.416-.116 2.124-.35a8.407 8.407 0 0 0 1.987-.955 8.27 8.27 0 0 0 1.654-1.426 6.432 6.432 0 0 0 1.12-1.763l-1.578-1.76-.667-.09c-.83 1.436-1.75 2.153-2.762 2.153-.95 0-1.507-.494-1.668-1.485 1.354-.405 2.513-.81 3.474-1.214.961-.404 1.744-.84 2.35-1.303.608-.466 1.048-.976 1.32-1.532s.41-1.188.41-1.897c0-1.05-.373-1.88-1.12-2.488h.002zm-3.428 3.428c0 .93-.972 1.77-2.913 2.52.3-2.146 1.02-3.218 2.152-3.218.505 0 .76.233.76.698h.001zm12.425-7.252c.637-.647.956-1.537.956-2.67C75.373.76 74.603 0 73.066 0c-1.072 0-1.927.314-2.563.94-.638.627-.956 1.498-.956 2.61 0 .75.202 1.33.606 1.745.405.415.99.622 1.76.622 1.032 0 1.866-.323 2.504-.97v-.001zM72.824 17.75c.16-1.152.344-2.265.546-3.337.202-1.072.395-2.033.576-2.883.223-.97.435-1.89.638-2.76l-.485-.607-2.37.182c-.687.04-1.425.08-2.214.122-.789.042-1.518.06-2.185.06l-.363 2.49h.85c.667 0 1 .333 1 1 0 .12-.02.333-.06.637-.04.304-.096.673-.167 1.107l-.227 1.428c-.08.517-.162 1.037-.242 1.563l-.666 4.097c0 1.355.668 2.033 2.003 2.033a3.9 3.9 0 0 0 1.26-.213c.414-.143.864-.395 1.35-.76.486-.365 1.03-.85 1.64-1.456a54.195 54.195 0 0 0 2.123-2.273l-.608-1.457-.697-.122c-.324.284-.582.512-.774.683a8.6 8.6 0 0 1-.437.38.997.997 0 0 1-.228.153.378.378 0 0 1-.137.03l-.123-.09-.003-.007z"/>
</svg>
