<svg width="76" height="4" viewBox="0 0 76 4" xmlns="http://www.w3.org/2000/svg">
  <path fill="#000" d="M1.1 3.58h1.525V4H.608V.11H1.1v3.47zM6.636 4h-.488V.11h.488V4zm4.888-.75l.89-3.14h.537L11.74 4h-.428L10.105.11h.535l.884 3.14zm6.737-1.048h-1.376v1.379h1.603V4h-2.092V.11h2.065v.422h-1.576v1.25h1.376v.42zm8.685.572l.05.435.078-.384.622-2.715h.41l.603 2.715.077.395.057-.449.475-2.661h.49L29.031 4h-.44l-.65-2.835-.04-.23-.04.23L27.189 4h-.444L25.973.11h.489l.484 2.664zm8.043.21h-1.315L33.372 4h-.502L34.123.11h.42L35.797 4h-.502l-.307-1.015zm-1.187-.421h1.061L34.331.794l-.529 1.769zm5.935 1.018h1.526V4h-2.017V.11h.491v3.47zm5.518 0h1.526V4h-2.017V.11h.491v3.47zm5.516-1.104V4h-.49V.11h1.24c.362 0 .646.108.853.325.207.216.31.504.31.864 0 .374-.098.662-.295.864-.197.203-.475.307-.833.314h-.785zm0-.42h.75c.218 0 .385-.064.5-.194.116-.13.174-.316.174-.559 0-.233-.06-.42-.18-.56a.61.61 0 0 0-.49-.212h-.754v1.526zm6.811.928h-1.314L55.966 4h-.503L56.716.11h.42L58.392 4h-.503l-.307-1.015zm-1.186-.422h1.06L56.926.794l-.53 1.769zm5.932-.086V4h-.489V.11h1.24c.362 0 .646.108.852.325.207.216.31.504.31.864 0 .374-.098.662-.295.864-.197.203-.474.307-.832.314h-.786zm0-.42h.75c.218 0 .385-.064.5-.194.116-.13.174-.316.174-.559 0-.233-.06-.42-.179-.56a.61.61 0 0 0-.491-.212h-.754v1.526zm7.327.145H68.28v1.379h1.603V4H67.79V.11h2.066v.422h-1.577v1.25h1.376v.42zm4.946.225h-.684V4h-.491V.11h1.09c.381 0 .67.1.866.298.196.199.294.49.294.872 0 .24-.053.45-.16.63a1.005 1.005 0 0 1-.45.404l.754 1.654V4h-.527l-.692-1.573zm-.684-.42h.594a.636.636 0 0 0 .49-.198c.122-.132.183-.308.183-.529 0-.498-.226-.748-.679-.748h-.588v1.475z"/>
</svg>
