<?xml version="1.0" encoding="utf-8"?>
<!-- Generator: Adobe Illustrator 17.1.0, SVG Export Plug-In . SVG Version: 6.00 Build 0)  -->
<!DOCTYPE svg PUBLIC "-//W3C//DTD SVG 1.1//EN" "http://www.w3.org/Graphics/SVG/1.1/DTD/svg11.dtd">
<svg version="1.1" id="shape" xmlns="http://www.w3.org/2000/svg" xmlns:xlink="http://www.w3.org/1999/xlink" x="0px" y="0px"
	 viewBox="0 0 88 88" enable-background="new 0 0 88 88" xml:space="preserve">
<path fill-rule="evenodd" clip-rule="evenodd" d="M44,0C19.7,0,0,19.7,0,44c0,24.3,19.7,44,44,44c24.3,0,44-19.7,44-44
	C88,19.7,68.3,0,44,0z M61.8,54.3c-1.1,1.1-2.1,2-3,2.7c-0.9,0.7-1.7,1.2-2.5,1.4c-0.8,0.3-1.6,0.4-2.3,0.4c-1.3,0-2.3-0.3-2.9-0.8
	c-0.6-0.5-0.9-1.4-0.9-2.5c0-0.6,0.2-1.5,0.5-2.8c0.4-1.3,0.8-2.6,1.2-4.1c0.4-1.4,0.8-2.8,1.2-4c0.4-1.3,0.5-2.2,0.5-2.7
	c0-1.1-0.3-1.6-1-1.6c-0.3,0-0.8,0.3-1.3,1c-0.5,0.6-1.1,1.5-1.8,2.7c-0.6,1.1-1.3,2.5-2,4c-0.7,1.6-1.4,3.3-2.1,5.1L45,55.8
	c0,0.4-0.3,0.8-0.8,1.1c-0.5,0.3-1.1,0.6-1.9,0.9c-0.8,0.3-1.7,0.5-2.7,0.6c-1,0.2-2,0.2-3.1,0.2l-1.1-1.3c0.7-2.6,1.3-5,1.8-7.1
	c0.2-0.9,0.4-1.8,0.6-2.7c0.2-0.9,0.4-1.8,0.6-2.6c0.2-0.8,0.3-1.5,0.4-2.1c0.1-0.6,0.2-1,0.2-1.3c0-0.9-0.4-1.3-1.1-1.3
	c-0.3,0-0.7,0.3-1.2,0.9c-0.5,0.6-1,1.4-1.6,2.5c-0.6,1.1-1.2,2.4-1.8,3.8c-0.6,1.5-1.3,3.1-1.9,4.9l-0.4,3.3
	c-0.1,0.4-0.3,0.8-0.8,1.1c-0.5,0.3-1.1,0.6-1.8,0.9c-0.8,0.3-1.6,0.5-2.6,0.6c-1,0.2-2,0.2-3.1,0.2l-1.1-1.3
	c0.5-2.8,0.9-5.4,1.3-7.8c0.2-1,0.3-2.1,0.5-3.1c0.2-1.1,0.3-2,0.5-3c0.2-0.9,0.3-1.8,0.4-2.5c0.1-0.7,0.2-1.3,0.3-1.7
	c0.1-0.9,0-1.5-0.3-1.9c-0.3-0.4-0.8-0.5-1.6-0.5h-1.6l0.7-4.6c1.2,0,2.6,0,4.1-0.1c1.5-0.1,2.8-0.2,4.1-0.2c1.5-0.1,3-0.2,4.4-0.3
	l0.8,1.2l-0.7,2.7c-0.2,0.8-0.4,1.7-0.6,2.7c-0.2,1-0.4,2-0.6,3l0.4-0.1c1.2-2.7,2.3-4.9,3.4-6.7c1.1-1.7,2.2-2.9,3.2-3.6
	c2.6,0,4.6,0.5,6.1,1.6c1.4,1.1,2.2,2.5,2.2,4.4c0,0.4,0,0.8-0.1,1.3c-0.1,0.5-0.2,1-0.3,1.4c-0.2,0.5-0.3,1.1-0.4,1.6l0.4-0.1
	c1.2-2.7,2.3-4.9,3.4-6.7c1.1-1.7,2.2-2.9,3.2-3.6c2.6,0,4.7,0.5,6.2,1.6c1.5,1.1,2.2,2.5,2.2,4.5c0,0.6-0.2,1.4-0.5,2.6
	c-0.3,1.1-0.6,2.3-1,3.6c-0.4,1.2-0.8,2.4-1.1,3.6c-0.4,1.1-0.6,2-0.7,2.6l0.2,0.2c0.2,0,0.4-0.1,0.7-0.4c0.3-0.3,1.1-0.9,2.2-1.9
	l1.4,0.2l1.1,2.7C64.2,51.8,62.9,53.2,61.8,54.3z"/>
</svg>
