<?xml version="1.0" encoding="utf-8"?>
<!-- Generator: Adobe Illustrator 16.0.4, SVG Export Plug-In . SVG Version: 6.00 Build 0)  -->
<!DOCTYPE svg PUBLIC "-//W3C//DTD SVG 1.0//EN" "http://www.w3.org/TR/2001/REC-SVG-20010904/DTD/svg10.dtd">
<svg version="1.0" id="Layer_1" xmlns="http://www.w3.org/2000/svg" xmlns:xlink="http://www.w3.org/1999/xlink" x="0px" y="0px"
	 width="75.828px" height="22.879px" viewBox="0 0 75.828 22.879" enable-background="new 0 0 75.828 22.879" xml:space="preserve">
<g>
	<path d="M20.876,17.66c0.061-0.323,0.187-0.789,0.379-1.396c0.192-0.606,0.395-1.243,0.607-1.911s0.399-1.31,0.561-1.927
		s0.243-1.077,0.243-1.381c0-1.032-0.4-1.831-1.199-2.397c-0.799-0.566-1.907-0.85-3.323-0.85c-0.566,0.364-1.148,1.012-1.745,1.942
		c-0.597,0.931-1.209,2.124-1.836,3.58l-0.212,0.03c0.061-0.303,0.131-0.596,0.212-0.88c0.041-0.242,0.086-0.495,0.137-0.758
		c0.05-0.263,0.076-0.495,0.076-0.698c0-1.011-0.39-1.8-1.168-2.367c-0.779-0.566-1.866-0.85-3.262-0.85
		C9.781,8.163,9.199,8.81,8.603,9.74c-0.597,0.931-1.209,2.124-1.836,3.58l-0.212,0.03c0.081-0.546,0.182-1.092,0.304-1.638
		c0.121-0.546,0.232-1.032,0.333-1.457L7.556,8.8L7.131,8.163C6.362,8.223,5.573,8.284,4.764,8.344
		C4.076,8.385,3.338,8.425,2.549,8.466C1.76,8.506,1.032,8.526,0.364,8.526L0,11.015h0.85c0.405,0,0.683,0.096,0.834,0.288
		c0.152,0.193,0.197,0.531,0.137,1.017c-0.041,0.223-0.091,0.531-0.152,0.926c-0.061,0.395-0.132,0.84-0.212,1.335
		c-0.081,0.496-0.167,1.027-0.258,1.593c-0.091,0.566-0.177,1.123-0.258,1.669c-0.223,1.295-0.455,2.69-0.698,4.188l0.606,0.698
		c0.566,0,1.118-0.041,1.654-0.122c0.536-0.081,1.006-0.197,1.411-0.349c0.404-0.151,0.733-0.318,0.986-0.501
		c0.252-0.182,0.399-0.384,0.44-0.606l0.212-1.79c0.323-0.951,0.657-1.825,1.001-2.625c0.344-0.799,0.668-1.487,0.971-2.063
		s0.581-1.026,0.834-1.351c0.252-0.323,0.46-0.485,0.622-0.485c0.384,0,0.577,0.233,0.577,0.698c0,0.142-0.031,0.374-0.091,0.698
		c-0.061,0.323-0.137,0.697-0.228,1.122s-0.192,0.886-0.303,1.381c-0.111,0.496-0.228,0.986-0.349,1.472
		c-0.284,1.153-0.607,2.428-0.971,3.823l0.607,0.698c0.566,0,1.118-0.041,1.654-0.122c0.536-0.081,1.011-0.197,1.426-0.349
		c0.414-0.151,0.748-0.318,1.001-0.501c0.252-0.182,0.389-0.384,0.409-0.606l0.152-1.456c0.384-0.991,0.769-1.907,1.153-2.746
		c0.384-0.84,0.748-1.563,1.092-2.17c0.344-0.607,0.662-1.082,0.956-1.427c0.293-0.344,0.531-0.516,0.713-0.516
		c0.364,0,0.546,0.284,0.546,0.85c0,0.284-0.096,0.764-0.288,1.441c-0.192,0.678-0.405,1.401-0.637,2.17
		c-0.233,0.769-0.445,1.497-0.637,2.185c-0.192,0.688-0.288,1.193-0.288,1.518c0,0.627,0.156,1.082,0.47,1.365
		c0.313,0.283,0.824,0.425,1.532,0.425c0.425,0,0.844-0.076,1.259-0.228c0.415-0.152,0.865-0.41,1.35-0.774
		c0.486-0.363,1.032-0.844,1.639-1.44s1.315-1.351,2.124-2.261l-0.577-1.457l-0.728-0.121c-0.607,0.526-1.001,0.865-1.184,1.017
		s-0.313,0.228-0.394,0.228L20.876,17.66z"/>
</g>
<g>
	<path d="M32.893,17.235c-0.284,1.214-0.506,2.145-0.668,2.791c-0.162,0.647-0.243,1.113-0.243,1.396
		c0,0.971,0.516,1.456,1.548,1.456c0.425,0,0.844-0.071,1.259-0.212c0.414-0.143,0.865-0.39,1.35-0.744
		c0.485-0.354,1.037-0.834,1.654-1.441c0.617-0.606,1.34-1.375,2.169-2.306l-0.607-1.457l-0.698-0.121
		c-0.344,0.304-0.612,0.542-0.804,0.713c-0.192,0.173-0.339,0.299-0.44,0.38c-0.102,0.081-0.172,0.126-0.212,0.137
		c-0.041,0.01-0.081,0.015-0.122,0.015l-0.121-0.091c0.162-0.971,0.344-1.978,0.546-3.02c0.202-1.041,0.395-1.997,0.577-2.867
		c0.223-1.011,0.435-2.002,0.637-2.974l-0.607-0.698l-3.307-0.061l-0.607,0.364l-0.334,2.731c-0.341,0.971-0.683,1.862-1.024,2.67
		c-0.341,0.81-0.667,1.497-0.979,2.063c-0.312,0.566-0.598,1.006-0.859,1.319c-0.261,0.314-0.481,0.471-0.662,0.471
		c-0.322,0-0.482-0.223-0.482-0.668c0-0.121,0.03-0.333,0.091-0.637c0.061-0.304,0.141-0.657,0.243-1.062
		c0.101-0.404,0.217-0.854,0.349-1.35c0.131-0.496,0.268-0.986,0.41-1.472c0.324-1.133,0.698-2.397,1.123-3.793l-0.487-0.606
		c-0.772,0.061-1.564,0.121-2.376,0.182c-0.691,0.041-1.432,0.081-2.224,0.122s-1.523,0.061-2.193,0.061l-0.365,2.488h0.85
		c0.667,0,1.001,0.334,1.001,1.001c0,0.364-0.091,0.89-0.273,1.578S25.625,15,25.413,15.748c-0.212,0.749-0.41,1.472-0.592,2.17
		c-0.182,0.697-0.273,1.239-0.273,1.623c0,1.032,0.395,1.831,1.184,2.397c0.789,0.566,1.901,0.85,3.338,0.85
		c1.051-0.729,2.235-2.569,3.55-5.522L32.893,17.235z"/>
</g>
<g>
	<path d="M42.936,14.564c0.263-0.788,0.602-1.335,1.017-1.638c0.414-0.304,1.066-0.456,1.957-0.456l1.244,0.031l-8.102,8.829
		l0.85,1.366c0.525-0.344,1.132-0.622,1.82-0.835c0.688-0.212,1.305-0.318,1.851-0.318c0.425,0,0.845,0.071,1.26,0.212
		c0.414,0.143,0.834,0.294,1.259,0.455c0.425,0.163,0.854,0.313,1.29,0.456c0.435,0.141,0.885,0.212,1.35,0.212
		c0.587,0,1.133-0.111,1.639-0.334c0.506-0.222,0.941-0.531,1.305-0.925c0.364-0.395,0.652-0.86,0.865-1.396
		c0.212-0.535,0.318-1.117,0.318-1.744c0-0.566-0.051-1.128-0.151-1.685c-0.102-0.556-0.233-0.976-0.395-1.259h-0.94
		c-0.102,0.769-0.329,1.391-0.683,1.866c-0.354,0.476-0.774,0.713-1.26,0.713c-0.202,0-0.436-0.01-0.698-0.03
		s-0.53-0.046-0.804-0.076s-0.531-0.056-0.773-0.076c-0.243-0.02-0.445-0.03-0.607-0.03l-0.667,0.091
		c1.314-1.375,2.675-2.766,4.081-4.172c1.405-1.405,2.837-2.796,4.293-4.172l-0.121-0.607l-2.063-1.942L51.28,7.98
		c-0.263,0.283-0.53,0.476-0.804,0.576c-0.273,0.102-0.683,0.152-1.229,0.152c-0.466,0-1.027-0.045-1.685-0.137
		c-0.657-0.091-1.3-0.187-1.927-0.288c-0.729-0.121-1.477-0.273-2.245-0.455l-1.305,0.334c-0.122,0.769-0.264,1.542-0.425,2.321
		c-0.162,0.779-0.314,1.482-0.455,2.109c-0.162,0.728-0.324,1.437-0.486,2.124L42.936,14.564z"/>
</g>
<g>
	<path d="M65.42,8.769c-0.749-0.606-1.771-0.91-3.065-0.91c-1.173,0-2.275,0.248-3.307,0.744c-1.032,0.496-1.938,1.168-2.716,2.018
		c-0.779,0.85-1.396,1.847-1.852,2.989s-0.683,2.361-0.683,3.656c0,1.72,0.45,3.085,1.351,4.096
		c0.899,1.013,2.108,1.518,3.626,1.518c0.708,0,1.416-0.116,2.124-0.349s1.37-0.551,1.987-0.956c0.617-0.404,1.168-0.88,1.654-1.426
		c0.485-0.547,0.859-1.133,1.122-1.761l-1.578-1.76l-0.667-0.091c-0.83,1.437-1.75,2.154-2.762,2.154
		c-0.95,0-1.507-0.495-1.668-1.486c1.354-0.405,2.513-0.81,3.474-1.214s1.745-0.84,2.352-1.305c0.607-0.466,1.047-0.976,1.32-1.532
		s0.409-1.188,0.409-1.897C66.542,10.206,66.168,9.376,65.42,8.769z M61.992,12.198c0,0.931-0.972,1.771-2.913,2.519
		c0.303-2.145,1.021-3.217,2.154-3.217C61.738,11.5,61.992,11.733,61.992,12.198L61.992,12.198z"/>
</g>
<g>
	<path d="M74.417,4.946c0.637-0.647,0.956-1.537,0.956-2.67c0-1.517-0.77-2.276-2.307-2.276c-1.072,0-1.927,0.314-2.563,0.94
		c-0.638,0.627-0.956,1.498-0.956,2.61c0,0.749,0.202,1.33,0.606,1.745c0.405,0.415,0.991,0.622,1.76,0.622
		C72.945,5.917,73.779,5.594,74.417,4.946z M72.824,17.751c0.161-1.153,0.344-2.266,0.546-3.338s0.395-2.033,0.576-2.883
		c0.223-0.971,0.435-1.891,0.638-2.761l-0.485-0.606c-0.77,0.061-1.559,0.121-2.367,0.182c-0.688,0.041-1.426,0.081-2.215,0.122
		s-1.518,0.061-2.185,0.061l-0.364,2.488h0.85c0.667,0,1.001,0.334,1.001,1.001c0,0.121-0.021,0.333-0.061,0.637
		c-0.041,0.304-0.096,0.673-0.167,1.107c-0.071,0.436-0.146,0.91-0.228,1.426c-0.081,0.517-0.162,1.037-0.242,1.563
		c-0.203,1.233-0.425,2.6-0.668,4.096c0,1.355,0.668,2.033,2.003,2.033c0.425,0,0.844-0.071,1.259-0.212
		c0.415-0.143,0.865-0.395,1.351-0.759s1.031-0.85,1.639-1.457c0.606-0.606,1.314-1.365,2.124-2.275l-0.607-1.457l-0.697-0.121
		c-0.324,0.284-0.582,0.512-0.774,0.683c-0.192,0.173-0.339,0.299-0.439,0.38c-0.102,0.081-0.178,0.132-0.228,0.151
		c-0.051,0.021-0.097,0.03-0.137,0.03L72.824,17.751z"/>
</g>
<g>
</g>
<g>
</g>
<g>
</g>
<g>
</g>
<g>
</g>
<g>
</g>
</svg>
